HIERARCHY
ROOT mixamorig:Hips
{
	OFFSET 0.000000 201.639420 0.000000
	CHANNELS 6 Xposition Yposition Zposition Xrotation Yrotation Zrotation
	JOINT mixamorig:Spine
	{
		OFFSET 0.006200 19.524994 -2.481800
		CHANNELS 3 Xrotation Yrotation Zrotation
		JOINT mixamorig:Spine1
		{
			OFFSET -0.000900 22.835007 -2.825400
			CHANNELS 3 Xrotation Yrotation Zrotation
			JOINT mixamorig:Spine2
			{
				OFFSET -0.020600 26.552490 -3.193300
				CHANNELS 3 Xrotation Yrotation Zrotation
				JOINT mixamorig:Neck
				{
					OFFSET -0.060000 30.701813 1.352200
					CHANNELS 3 Xrotation Yrotation Zrotation
					JOINT mixamorig:Head
					{
						OFFSET -0.087200 22.547607 3.670900
						CHANNELS 3 Xrotation Yrotation Zrotation
						JOINT mixamorig:HeadTop_End
						{
							OFFSET -0.830600 40.355194 7.893500
							CHANNELS 3 Xrotation Yrotation Zrotation
							End Site
							{
								OFFSET 0.000000 30.592346 0.000000
							}
						}
						JOINT mixamorig:RightEye
						{
							OFFSET -6.302100 18.118591 16.197100
							CHANNELS 3 Xrotation Yrotation Zrotation
							End Site
							{
								OFFSET 0.000000 30.592346 0.000000
							}
						}
						JOINT mixamorig:LeftEye
						{
							OFFSET 6.741500 18.382690 16.401899
							CHANNELS 3 Xrotation Yrotation Zrotation
							End Site
							{
								OFFSET 0.000000 30.592346 0.000000
							}
						}
					}
				}
				JOINT mixamorig:LeftShoulder
				{
					OFFSET 11.924900 18.230499 1.425400
					CHANNELS 3 Xrotation Yrotation Zrotation
					JOINT mixamorig:LeftArm
					{
						OFFSET 25.435989 -0.697632 -5.229300
						CHANNELS 3 Xrotation Yrotation Zrotation
						JOINT mixamorig:LeftForeArm
						{
							OFFSET 54.684776 0.000000 0.000000
							CHANNELS 3 Xrotation Yrotation Zrotation
							JOINT mixamorig:LeftHand
							{
								OFFSET 55.098175 0.000000 0.000000
								CHANNELS 3 Xrotation Yrotation Zrotation
								JOINT mixamorig:LeftHandMiddle1
								{
									OFFSET 23.369751 0.000000 0.000000
									CHANNELS 3 Xrotation Yrotation Zrotation
									JOINT mixamorig:LeftHandMiddle2
									{
										OFFSET 6.378677 0.000000 0.000000
										CHANNELS 3 Xrotation Yrotation Zrotation
										JOINT mixamorig:LeftHandMiddle3
										{
											OFFSET 6.148331 0.000000 0.000000
											CHANNELS 3 Xrotation Yrotation Zrotation
											JOINT mixamorig:LeftHandMiddle4
											{
												OFFSET 6.582504 0.000000 0.000000
												CHANNELS 3 Xrotation Yrotation Zrotation
												End Site
												{
													OFFSET -1.168900 6.395691 1.028606
												}
											}
										}
									}
								}
								JOINT mixamorig:LeftHandThumb1
								{
									OFFSET 7.235672 -3.848206 5.434273
									CHANNELS 3 Xrotation Yrotation Zrotation
									JOINT mixamorig:LeftHandThumb2
									{
										OFFSET 6.568451 -3.792297 3.792300
										CHANNELS 3 Xrotation Yrotation Zrotation
										JOINT mixamorig:LeftHandThumb3
										{
											OFFSET 6.063080 -3.500519 3.500518
											CHANNELS 3 Xrotation Yrotation Zrotation
											JOINT mixamorig:LeftHandThumb4
											{
												OFFSET 4.793182 -2.767334 2.767349
												CHANNELS 3 Xrotation Yrotation Zrotation
												End Site
												{
													OFFSET 0.101639 6.054260 1.275483
												}
											}
										}
									}
								}
								JOINT mixamorig:LeftHandIndex1
								{
									OFFSET 23.101074 -0.309540 4.992809
									CHANNELS 3 Xrotation Yrotation Zrotation
									JOINT mixamorig:LeftHandIndex2
									{
										OFFSET 6.226883 0.000000 0.000000
										CHANNELS 3 Xrotation Yrotation Zrotation
										JOINT mixamorig:LeftHandIndex3
										{
											OFFSET 6.094330 0.000000 0.000000
											CHANNELS 3 Xrotation Yrotation Zrotation
											JOINT mixamorig:LeftHandIndex4
											{
												OFFSET 5.482605 0.000000 0.000000
												CHANNELS 3 Xrotation Yrotation Zrotation
												End Site
												{
													OFFSET -1.427902 5.233032 0.797164
												}
											}
										}
									}
								}
								JOINT mixamorig:LeftHandRing1
								{
									OFFSET 22.299240 0.021149 -3.964172
									CHANNELS 3 Xrotation Yrotation Zrotation
									JOINT mixamorig:LeftHandRing2
									{
										OFFSET 6.321869 0.000000 0.000000
										CHANNELS 3 Xrotation Yrotation Zrotation
										JOINT mixamorig:LeftHandRing3
										{
											OFFSET 5.899796 0.000000 0.000000
											CHANNELS 3 Xrotation Yrotation Zrotation
											JOINT mixamorig:LeftHandRing4
											{
												OFFSET 6.517899 0.000000 0.000000
												CHANNELS 3 Xrotation Yrotation Zrotation
												End Site
												{
													OFFSET -1.637299 6.232208 0.980890
												}
											}
										}
									}
								}
								JOINT mixamorig:LeftHandPinky1
								{
									OFFSET 20.463791 -0.302338 -8.562233
									CHANNELS 3 Xrotation Yrotation Zrotation
									JOINT mixamorig:LeftHandPinky2
									{
										OFFSET 6.908646 0.000000 0.000000
										CHANNELS 3 Xrotation Yrotation Zrotation
										JOINT mixamorig:LeftHandPinky3
										{
											OFFSET 4.622849 0.000000 0.000000
											CHANNELS 3 Xrotation Yrotation Zrotation
											JOINT mixamorig:LeftHandPinky4
											{
												OFFSET 5.216080 0.000000 0.000000
												CHANNELS 3 Xrotation Yrotation Zrotation
												End Site
												{
													OFFSET -0.606308 5.116241 0.814926
												}
											}
										}
									}
								}
							}
						}
					}
				}
				JOINT mixamorig:RightShoulder
				{
					OFFSET -12.001300 18.284088 1.348900
					CHANNELS 3 Xrotation Yrotation Zrotation
					JOINT mixamorig:RightArm
					{
						OFFSET -25.308500 -0.751312 -5.164599
						CHANNELS 3 Xrotation Yrotation Zrotation
						JOINT mixamorig:RightForeArm
						{
							OFFSET -54.684429 0.000000 0.000000
							CHANNELS 3 Xrotation Yrotation Zrotation
							JOINT mixamorig:RightHand
							{
								OFFSET -55.150291 0.000000 0.000000
								CHANNELS 3 Xrotation Yrotation Zrotation
								JOINT mixamorig:RightHandMiddle1
								{
									OFFSET -23.317566 0.000000 0.000000
									CHANNELS 3 Xrotation Yrotation Zrotation
									JOINT mixamorig:RightHandMiddle2
									{
										OFFSET -6.378403 0.000000 0.000000
										CHANNELS 3 Xrotation Yrotation Zrotation
										JOINT mixamorig:RightHandMiddle3
										{
											OFFSET -6.148193 0.000000 0.000000
											CHANNELS 3 Xrotation Yrotation Zrotation
											JOINT mixamorig:RightHandMiddle4
											{
												OFFSET -6.583389 0.000000 0.000000
												CHANNELS 3 Xrotation Yrotation Zrotation
												End Site
												{
													OFFSET 1.171692 6.395905 1.029786
												}
											}
										}
									}
								}
								JOINT mixamorig:RightHandThumb1
								{
									OFFSET -7.190521 -3.860474 5.435846
									CHANNELS 3 Xrotation Yrotation Zrotation
									JOINT mixamorig:RightHandThumb2
									{
										OFFSET -6.567429 -3.791718 3.791708
										CHANNELS 3 Xrotation Yrotation Zrotation
										JOINT mixamorig:RightHandThumb3
										{
											OFFSET -6.062469 -3.500153 3.500166
											CHANNELS 3 Xrotation Yrotation Zrotation
											JOINT mixamorig:RightHandThumb4
											{
												OFFSET -4.792618 -2.767029 2.767022
												CHANNELS 3 Xrotation Yrotation Zrotation
												End Site
												{
													OFFSET -0.100327 6.053253 1.276754
												}
											}
										}
									}
								}
								JOINT mixamorig:RightHandIndex1
								{
									OFFSET -23.048981 -0.310791 4.992554
									CHANNELS 3 Xrotation Yrotation Zrotation
									JOINT mixamorig:RightHandIndex2
									{
										OFFSET -6.227539 0.000000 0.000000
										CHANNELS 3 Xrotation Yrotation Zrotation
										JOINT mixamorig:RightHandIndex3
										{
											OFFSET -6.095047 0.000000 0.000000
											CHANNELS 3 Xrotation Yrotation Zrotation
											JOINT mixamorig:RightHandIndex4
											{
												OFFSET -5.484772 0.000000 0.000000
												CHANNELS 3 Xrotation Yrotation Zrotation
												End Site
												{
													OFFSET 1.420593 5.237305 0.797056
												}
											}
										}
									}
								}
								JOINT mixamorig:RightHandRing1
								{
									OFFSET -22.246323 0.020569 -3.963762
									CHANNELS 3 Xrotation Yrotation Zrotation
									JOINT mixamorig:RightHandRing2
									{
										OFFSET -6.322128 0.000000 0.000000
										CHANNELS 3 Xrotation Yrotation Zrotation
										JOINT mixamorig:RightHandRing3
										{
											OFFSET -5.900024 0.000000 0.000000
											CHANNELS 3 Xrotation Yrotation Zrotation
											JOINT mixamorig:RightHandRing4
											{
												OFFSET -6.518356 0.000000 0.000000
												CHANNELS 3 Xrotation Yrotation Zrotation
												End Site
												{
													OFFSET 1.636398 6.232697 0.982186
												}
											}
										}
									}
								}
								JOINT mixamorig:RightHandPinky1
								{
									OFFSET -20.411011 -0.303314 -8.561701
									CHANNELS 3 Xrotation Yrotation Zrotation
									JOINT mixamorig:RightHandPinky2
									{
										OFFSET -6.907349 0.000000 0.000000
										CHANNELS 3 Xrotation Yrotation Zrotation
										JOINT mixamorig:RightHandPinky3
										{
											OFFSET -4.623840 0.000000 0.000000
											CHANNELS 3 Xrotation Yrotation Zrotation
											JOINT mixamorig:RightHandPinky4
											{
												OFFSET -5.218353 0.000000 0.000000
												CHANNELS 3 Xrotation Yrotation Zrotation
												End Site
												{
													OFFSET 0.602097 5.118835 0.816273
												}
											}
										}
									}
								}
							}
						}
					}
				}
			}
		}
	}
	JOINT mixamorig:LeftUpLeg
	{
		OFFSET 18.168400 -13.561905 -0.039000
		CHANNELS 3 Xrotation Yrotation Zrotation
		JOINT mixamorig:LeftLeg
		{
			OFFSET 0.577358 -80.825211 -3.695000
			CHANNELS 3 Xrotation Yrotation Zrotation
			JOINT mixamorig:LeftFoot
			{
				OFFSET -0.577356 -83.370262 -6.520700
				CHANNELS 3 Xrotation Yrotation Zrotation
				JOINT mixamorig:LeftToeBase
				{
					OFFSET 0.750401 -20.798306 25.135401
					CHANNELS 3 Xrotation Yrotation Zrotation
					JOINT mixamorig:LeftToe_End
					{
						OFFSET -0.000500 0.001200 19.917799
						CHANNELS 3 Xrotation Yrotation Zrotation
						End Site
						{
							OFFSET 0.000000 19.917805 0.000000
						}
					}
				}
			}
		}
	}
	JOINT mixamorig:RightUpLeg
	{
		OFFSET -18.162500 -13.585098 -0.041000
		CHANNELS 3 Xrotation Yrotation Zrotation
		JOINT mixamorig:RightLeg
		{
			OFFSET -0.595024 -80.945297 -3.631900
			CHANNELS 3 Xrotation Yrotation Zrotation
			JOINT mixamorig:RightFoot
			{
				OFFSET 0.595024 -83.218193 -6.561200
				CHANNELS 3 Xrotation Yrotation Zrotation
				JOINT mixamorig:RightToeBase
				{
					OFFSET -0.753601 -20.807106 25.115000
					CHANNELS 3 Xrotation Yrotation Zrotation
					JOINT mixamorig:RightToe_End
					{
						OFFSET 0.000299 0.001700 19.918200
						CHANNELS 3 Xrotation Yrotation Zrotation
						End Site
						{
							OFFSET 0.000000 19.918203 0.000000
						}
					}
				}
			}
		}
	}
}
MOTION
Frames: 4
Frame Time: 0.033333
-3.105124 44.397629 -131.295914 -6.201308 4.447584 6.791687 20.832661 -11.247503 3.978821 3.169674 -2.427241 -0.183039 3.153815 -2.450851 -0.149951 15.793330 -2.714666 -6.778844 8.926806 -20.142554 -1.858718 0.000001 -0.000002 -0.000001 0.000001 -0.000002 -0.000001 0.000001 -0.000002 -0.000001 -1.103276 -3.098414 3.786642 27.626659 -64.510112 5.938799 -0.000001 -38.678303 -0.000011 25.584381 -13.483727 -8.179543 1.363536 6.200962 -14.062650 0.000003 -0.000065 -0.000012 0.016397 -0.475932 3.946922 -0.000002 0.000001 0.000001 0.885702 0.150169 -3.690650 6.349965 15.354779 2.121085 -0.410433 1.922071 2.557638 0.000000 0.000002 0.000002 4.652749 10.366211 -27.949411 0.000003 -0.000000 0.000001 0.046003 -0.796362 6.614064 0.000004 0.000002 -0.000002 -0.038067 3.684724 0.812526 0.143908 1.403143 -11.710671 0.040854 0.750505 -6.231597 -0.000003 0.000000 0.000003 0.607017 10.862790 -2.625920 0.421657 -1.688971 -20.528518 0.251557 1.847719 -15.504622 0.000003 0.000001 0.000001 -1.847403 -3.803142 -5.800803 8.639789 27.426901 88.748350 0.000009 26.979490 -0.000027 -28.799848 -7.772778 -1.153874 -18.836451 -11.288757 -54.687081 1.048197 -3.676325 31.818365 30.310508 -0.263441 -0.609914 0.000002 0.000003 0.000000 -15.478124 35.144243 -15.608111 9.109964 -25.175896 -2.378151 1.881208 -8.022042 -4.289738 0.000000 0.000001 0.000000 -16.463445 -5.095050 -62.468815 3.489456 -6.029827 60.085283 0.104553 1.203677 -9.928015 -0.000000 -0.000001 0.000000 -16.241107 -13.047587 -48.018112 0.481845 -2.547827 21.415363 14.146984 1.847986 14.322281 -0.000001 0.000003 -0.000000 -18.275343 -6.026743 -62.891774 1.258907 -3.995249 34.967447 0.957675 -3.526552 30.377502 0.000000 0.000001 -0.000001 -123.540568 -8.718827 14.110032 81.978703 -9.014895 -0.599460 48.792956 -10.184200 0.173658 -1.905909 0.000003 0.000007 0.000000 0.000000 0.000001 -132.099246 12.597235 -21.892828 87.418293 -2.914904 -0.159342 47.874415 -0.899120 -6.593937 2.168706 0.054923 -2.150786 0.000000 0.000002 0.000001 
-3.479359 44.985977 -130.809586 -5.224486 4.469055 7.526021 19.728102 -12.110800 3.392810 3.017229 -2.574713 -0.240578 3.002574 -2.595144 -0.206992 15.802940 -2.271650 -5.708754 9.080485 -17.488442 -0.157439 -0.000004 0.000000 0.000002 -0.000004 0.000000 0.000002 -0.000004 0.000000 0.000002 -1.186407 -3.200634 4.017101 28.404395 -63.850186 5.510422 0.000016 -38.720865 0.000019 25.028161 -13.621288 -7.574672 1.374959 6.234742 -14.093951 -0.000008 -0.000056 -0.000020 0.016325 -0.474751 3.937156 -0.000002 -0.000000 0.000000 1.541834 1.452906 -3.635296 5.722547 13.339760 1.751098 -0.458697 1.823330 2.552688 -0.000001 0.000000 0.000001 4.695482 10.424066 -28.018933 0.000003 0.000000 -0.000006 0.045216 -0.789469 6.556500 -0.000000 -0.000001 -0.000001 -0.038754 3.862834 0.806729 0.145781 1.412176 -11.787072 0.043416 0.773554 -6.423842 0.000001 0.000000 -0.000000 0.653059 11.226119 -2.740388 0.424569 -1.681163 -20.597409 0.266035 1.899138 -15.947769 0.000000 0.000000 0.000000 -1.923326 -3.839487 -5.584431 6.126807 32.917875 89.374016 0.000002 21.882837 -0.000001 -33.018357 -4.254381 -2.070499 -19.345415 -10.600977 -56.445616 1.034245 -3.653782 31.600137 31.024980 -0.717654 -1.605673 0.000002 -0.000001 -0.000000 -15.452268 35.395229 -15.293530 9.361775 -25.853543 -2.411284 1.943868 -8.258880 -4.360391 -0.000001 -0.000001 -0.000001 -16.259539 -4.989061 -62.422977 3.447634 -6.005702 59.686380 0.104545 1.203666 -9.928010 -0.000000 -0.000002 0.000003 -16.767734 -12.523005 -49.675505 0.496311 -2.584345 21.738407 15.561867 1.830337 11.906490 -0.000002 0.000003 0.000001 -18.248140 -6.146770 -62.635362 1.264033 -4.002560 35.040919 0.700440 -3.046284 25.892636 -0.000004 -0.000000 -0.000001 -124.021332 -8.666762 14.042518 82.295986 -8.983067 -0.592917 47.656429 -9.910604 0.233866 -1.595341 -0.000001 -0.000002 -0.000000 0.000001 0.000000 -133.274790 12.832957 -21.516769 87.692321 -2.657554 -0.147113 47.450595 -1.030008 -6.968713 2.124747 0.033279 -1.676071 0.000000 0.000001 -0.000000 
-3.862263 45.674057 -130.132721 -4.301325 4.466901 8.248361 18.349336 -12.968260 2.715725 2.903430 -2.724615 -0.230039 2.892463 -2.738670 -0.200452 15.636777 -1.742213 -4.720259 9.681155 -14.768636 2.073785 -0.000000 -0.000001 0.000001 -0.000000 -0.000001 0.000001 -0.000000 -0.000001 0.000001 -1.260778 -3.181542 4.237125 28.814270 -63.658094 4.568407 -0.000004 -37.835386 -0.000011 24.241646 -14.237246 -7.202479 1.357045 6.170022 -14.081577 0.000007 0.005725 -0.047479 0.016532 -0.477876 3.963185 -0.000001 0.000001 -0.000001 2.487267 3.397985 -3.433052 4.660577 10.075741 1.146731 -0.535949 1.665382 2.544814 0.000000 -0.000000 -0.000000 4.626392 10.307394 -27.985805 0.000013 0.015390 -0.127521 0.043386 -0.773456 6.422945 -0.000001 0.000000 -0.000000 -0.039556 4.057639 0.802679 0.144341 1.405279 -11.728645 0.040859 0.750649 -6.232755 0.000002 -0.000000 -0.000001 0.703516 11.622620 -2.856831 0.415189 -1.706330 -20.375250 0.251838 1.848746 -15.513513 0.000000 0.000001 0.000001 -1.968983 -3.886783 -5.171002 3.182169 37.160891 90.513196 -0.000001 15.901271 0.000002 -35.987577 -1.036036 -1.732196 -19.547008 -10.205778 -57.328551 1.024501 -3.637942 31.446959 31.414837 -1.291031 -2.834830 0.000000 -0.000003 0.000001 -15.508831 35.898788 -15.003093 9.692126 -26.792206 -2.515234 2.044478 -8.533141 -4.439654 -0.000002 0.000002 0.000001 -16.143671 -4.958579 -62.334813 3.362369 -5.955320 58.868041 0.098478 1.168451 -9.634546 -0.000002 -0.000001 -0.000002 -17.091158 -12.093857 -50.847186 0.510268 -2.619061 22.046041 16.338128 1.819336 10.867683 -0.000001 0.000004 0.000002 -18.053594 -6.026615 -62.625663 1.254077 -3.988349 34.897919 0.622641 -2.880709 24.387791 0.000001 -0.000002 0.000001 -124.492560 -8.624079 14.016877 82.813052 -8.944566 -0.566107 46.369680 -9.605411 0.472507 -1.309919 -0.000001 0.000004 -0.000000 0.000000 -0.000001 -134.439392 13.013185 -21.183927 88.130225 -2.397065 -0.133908 46.890273 -1.186757 -7.463769 2.119236 0.018209 -1.241480 0.000000 0.000000 0.000000 
-4.266544 46.503036 -129.168152 -3.479052 4.444635 8.924923 16.596567 -13.864903 1.884028 3.050083 -2.887094 -0.114676 3.046273 -2.891762 -0.103561 15.411675 -1.149491 -3.756986 10.312375 -11.928902 4.611306 0.000000 0.000001 -0.000001 0.000000 0.000001 -0.000001 0.000000 0.000001 -0.000001 -1.179369 -3.132401 4.463381 28.335646 -63.492633 2.979461 0.000008 -36.665395 0.000017 23.685334 -15.154571 -7.107140 1.287193 5.908169 -14.060119 0.000015 0.016258 -0.134669 0.017041 -0.485138 4.023442 -0.000002 0.000001 0.000001 3.049486 4.644891 -3.166679 3.819497 7.614222 0.691169 -0.599216 1.535350 2.537645 0.000001 0.000001 -0.000002 4.353852 9.827483 -27.914737 0.000100 0.036467 -0.302187 0.043832 -0.777341 6.455415 0.000002 0.000003 -0.000001 -0.039822 4.083394 0.804339 0.141562 1.391820 -11.614655 0.034630 0.691162 -5.737155 0.000002 0.000002 0.000001 0.707805 11.668897 -2.861547 0.404759 -1.734591 -20.126004 0.216587 1.716757 -14.380325 -0.000004 -0.000003 -0.000001 -1.840502 -4.000425 -4.227986 0.175015 39.786832 91.439615 -0.000003 9.605601 0.000009 -37.160396 1.510219 -0.602461 -19.480992 -10.068167 -57.458440 1.030840 -3.648245 31.546530 31.524680 -1.711426 -3.736376 0.000002 -0.000001 -0.000004 -15.604412 36.420638 -15.130505 9.922229 -27.571440 -2.655934 2.168688 -8.815237 -4.520658 0.000003 -0.000002 0.000000 -15.988552 -5.041486 -61.955963 3.309386 -5.923155 58.355996 0.103765 1.199168 -9.890542 -0.000000 -0.000002 -0.000001 -16.805501 -12.340411 -50.013585 0.471908 -2.522348 21.190698 16.813634 1.752755 9.975087 0.000001 0.000001 0.000001 -18.275346 -6.026739 -62.891788 1.251720 -3.984979 34.864028 0.773587 -3.192358 27.236807 -0.000003 0.000001 -0.000000 -124.917917 -8.637475 14.029786 83.592363 -8.917552 -0.520192 44.915795 -9.295661 0.814438 -1.151062 -0.000001 -0.000000 0.000000 -0.000000 -0.000001 -135.558532 13.171933 -20.920509 88.854266 -2.146289 -0.121757 46.091110 -1.330870 -7.983120 2.185293 0.009421 -0.894495 0.000000 -0.000001 0.000001 
